<?xml version="1.0" encoding="UTF-8"?>
<svg width="128" height="128" viewBox="0 0 128 128" xmlns="http://www.w3.org/2000/svg">
  <!-- Dark background -->
  <rect width="128" height="128" fill="#000000" rx="8"/>
  
  <!-- Matrix green border -->
  <rect x="4" y="4" width="120" height="120" fill="none" stroke="#00ff00" stroke-width="2" rx="6"/>
  
  <!-- Matrix rain effect (stylized) -->
  <g fill="#00ff00" opacity="0.8">
    <!-- Column 1 -->
    <rect x="20" y="20" width="4" height="8" rx="1"/>
    <rect x="20" y="32" width="4" height="12" rx="1"/>
    <rect x="20" y="48" width="4" height="6" rx="1"/>
    <rect x="20" y="58" width="4" height="10" rx="1"/>
    <rect x="20" y="72" width="4" height="8" rx="1"/>
    <rect x="20" y="84" width="4" height="14" rx="1"/>
    
    <!-- Column 2 -->
    <rect x="36" y="16" width="4" height="10" rx="1"/>
    <rect x="36" y="30" width="4" height="8" rx="1"/>
    <rect x="36" y="42" width="4" height="12" rx="1"/>
    <rect x="36" y="58" width="4" height="6" rx="1"/>
    <rect x="36" y="68" width="4" height="10" rx="1"/>
    <rect x="36" y="82" width="4" height="16" rx="1"/>
    
    <!-- Column 3 -->
    <rect x="52" y="24" width="4" height="12" rx="1"/>
    <rect x="52" y="40" width="4" height="8" rx="1"/>
    <rect x="52" y="52" width="4" height="10" rx="1"/>
    <rect x="52" y="66" width="4" height="6" rx="1"/>
    <rect x="52" y="76" width="4" height="12" rx="1"/>
    <rect x="52" y="92" width="4" height="8" rx="1"/>
    
    <!-- Column 4 -->
    <rect x="68" y="18" width="4" height="8" rx="1"/>
    <rect x="68" y="30" width="4" height="14" rx="1"/>
    <rect x="68" y="48" width="4" height="6" rx="1"/>
    <rect x="68" y="58" width="4" height="10" rx="1"/>
    <rect x="68" y="72" width="4" height="8" rx="1"/>
    <rect x="68" y="84" width="4" height="12" rx="1"/>
    
    <!-- Column 5 -->
    <rect x="84" y="22" width="4" height="10" rx="1"/>
    <rect x="84" y="36" width="4" height="8" rx="1"/>
    <rect x="84" y="48" width="4" height="12" rx="1"/>
    <rect x="84" y="64" width="4" height="6" rx="1"/>
    <rect x="84" y="74" width="4" height="10" rx="1"/>
    <rect x="84" y="88" width="4" height="14" rx="1"/>
    
    <!-- Column 6 -->
    <rect x="100" y="20" width="4" height="12" rx="1"/>
    <rect x="100" y="36" width="4" height="8" rx="1"/>
    <rect x="100" y="48" width="4" height="10" rx="1"/>
    <rect x="100" y="62" width="4" height="6" rx="1"/>
    <rect x="100" y="72" width="4" height="12" rx="1"/>
    <rect x="100" y="88" width="4" height="10" rx="1"/>
  </g>
  
  <!-- Bright accent at top (leading edge) -->
  <g fill="#00ff00">
    <rect x="20" y="16" width="4" height="4" rx="1"/>
    <rect x="36" y="12" width="4" height="4" rx="1"/>
    <rect x="52" y="20" width="4" height="4" rx="1"/>
    <rect x="68" y="14" width="4" height="4" rx="1"/>
    <rect x="84" y="18" width="4" height="4" rx="1"/>
    <rect x="100" y="16" width="4" height="4" rx="1"/>
  </g>
  
  <!-- NRHOF text at bottom -->
  <text x="64" y="116" font-family="monospace" font-size="12" fill="#00ff00" text-anchor="middle" font-weight="bold">NRHOF</text>
</svg>
