<svg width="264" height="302" viewBox="0 0 264 302" fill="none" xmlns="http://www.w3.org/2000/svg">
<mask id="path-1-outside-1_837_2249" maskUnits="userSpaceOnUse" x="0" y="0" width="264" height="303" fill="black">
<rect fill="white" width="264" height="303"/>
<path d="M119.405 295.121C80.7173 272.728 42.1572 250.42 3.72491 228.197C2.89698 227.719 2.20933 227.033 1.73104 226.206C1.25274 225.38 1.00062 224.443 1 223.49L1.02129 78.8867C1.02107 77.8903 1.2825 76.9113 1.7794 76.0478C2.27631 75.1843 2.99126 74.4666 3.85263 73.9665L128.836 1.78189C129.722 1.26966 130.728 1 131.752 1C132.776 1 133.782 1.26966 134.669 1.78189L259.843 74.0517C260.653 74.5243 261.324 75.2015 261.791 76.0162C262.258 76.8308 262.504 77.7544 262.504 78.695V223.086C262.503 224.174 262.218 225.242 261.676 226.184C261.135 227.126 260.356 227.909 259.418 228.453C218.927 251.798 177.494 275.731 135.116 300.254C130.347 303.002 123.407 297.443 119.405 295.121ZM23.4804 78.1838C60.0677 72.8021 94.5475 68.1091 126.92 64.1048C127.509 64.0272 128.049 63.7382 128.441 63.2915C128.833 62.8448 129.049 62.2708 129.049 61.6766V17.0325C129.049 15.6267 128.438 15.2717 127.218 15.9675C92.1349 36.2448 56.7468 56.657 21.0535 77.2041C19.6485 77.9992 19.7478 78.3968 21.3515 78.3968C21.8057 78.3968 22.5153 78.3258 23.4804 78.1838ZM135.542 15.5841C135.435 15.5202 135.314 15.4856 135.19 15.4837C135.067 15.4818 134.944 15.5127 134.836 15.5732C134.728 15.6338 134.638 15.7219 134.575 15.8285C134.512 15.9351 134.478 16.0566 134.477 16.1805L134.605 63.0398C134.604 63.2123 134.666 63.3793 134.78 63.5089C134.894 63.6386 135.051 63.7218 135.222 63.7427L241.45 78.0986C241.61 78.1177 241.771 78.0815 241.907 77.9962C242.043 77.9108 242.146 77.7814 242.198 77.6295C242.25 77.4776 242.249 77.3124 242.194 77.1613C242.14 77.0103 242.035 76.8825 241.897 76.7994L135.542 15.5841ZM57.946 186.131C57.9985 186.261 58.0869 186.374 58.2008 186.456C58.3147 186.538 58.4495 186.587 58.5898 186.596C58.73 186.605 58.8698 186.574 58.9932 186.506C59.1166 186.439 59.2185 186.338 59.2872 186.216L125.898 70.7715C125.967 70.6509 126 70.5136 125.995 70.375C125.99 70.2363 125.946 70.1019 125.868 69.9868C125.791 69.8717 125.683 69.7805 125.557 69.7235C125.43 69.6664 125.29 69.6458 125.153 69.664L17.2216 84.2756C17.1081 84.2899 16.9995 84.3302 16.9041 84.3933C16.8086 84.4564 16.729 84.5407 16.6714 84.6395C16.6137 84.7384 16.5796 84.8492 16.5717 84.9634C16.5637 85.0776 16.5822 85.192 16.6256 85.2979L57.946 186.131ZM138.352 69.6427C138.211 69.6214 138.067 69.6409 137.937 69.6987C137.808 69.7566 137.697 69.8503 137.619 69.969C137.54 70.0877 137.498 70.2263 137.495 70.3685C137.493 70.5107 137.532 70.6505 137.606 70.7715L204.26 186.28C204.329 186.402 204.43 186.503 204.554 186.57C204.677 186.638 204.817 186.669 204.957 186.66C205.098 186.651 205.232 186.602 205.346 186.52C205.46 186.438 205.549 186.325 205.601 186.195L246.922 85.2979C246.965 85.1936 246.984 85.0807 246.977 84.9679C246.97 84.8551 246.938 84.7453 246.883 84.6469C246.827 84.5484 246.75 84.4638 246.657 84.3994C246.565 84.3351 246.458 84.2928 246.347 84.2756L138.352 69.6427ZM63.3745 189.73C63.3034 189.853 63.266 189.993 63.2661 190.135C63.2662 190.278 63.3037 190.417 63.375 190.54C63.4462 190.664 63.5486 190.766 63.6718 190.837C63.7951 190.908 63.9348 190.945 64.077 190.944H199.427C199.57 190.945 199.709 190.908 199.833 190.837C199.956 190.766 200.058 190.664 200.13 190.54C200.201 190.417 200.238 190.278 200.238 190.135C200.238 189.993 200.201 189.853 200.13 189.73L132.455 72.6672C132.384 72.5433 132.282 72.4402 132.158 72.3686C132.035 72.2969 131.895 72.2592 131.752 72.2592C131.61 72.2592 131.469 72.2969 131.346 72.3686C131.223 72.4402 131.12 72.5433 131.05 72.6672L63.3745 189.73ZM12.3041 215.609C12.3067 215.728 12.3401 215.843 12.4009 215.945C12.4618 216.046 12.548 216.13 12.6511 216.188C12.7543 216.246 12.8707 216.277 12.989 216.276C13.1073 216.275 13.2234 216.244 13.3259 216.184L54.0503 192.755C54.1915 192.67 54.2973 192.537 54.3482 192.381C54.399 192.224 54.3915 192.054 54.327 191.903L13.5813 92.1777C13.5253 92.0262 13.4173 91.8995 13.2766 91.8202C13.1358 91.741 12.9715 91.7143 12.813 91.745C12.6544 91.7757 12.5119 91.8618 12.4109 91.9879C12.3099 92.1139 12.2569 92.2718 12.2615 92.4333L12.3041 215.609ZM209.028 191.903C208.967 192.054 208.963 192.222 209.018 192.375C209.073 192.529 209.183 192.656 209.327 192.734L250.115 216.184C250.215 216.24 250.328 216.268 250.443 216.267C250.557 216.265 250.669 216.234 250.768 216.176C250.867 216.118 250.949 216.035 251.006 215.936C251.063 215.837 251.094 215.724 251.094 215.609L251.222 92.5824C251.222 92.4278 251.168 92.278 251.069 92.1591C250.97 92.0403 250.833 91.9599 250.681 91.932C250.529 91.9041 250.372 91.9305 250.237 92.0065C250.103 92.0826 249.999 92.2035 249.944 92.3481L209.028 191.903ZM199.151 197.313C199.23 197.209 199.278 197.085 199.291 196.955C199.304 196.825 199.28 196.695 199.223 196.577C199.165 196.46 199.076 196.361 198.966 196.292C198.855 196.222 198.728 196.185 198.597 196.184H64.9498C64.8193 196.185 64.6917 196.222 64.5813 196.292C64.4708 196.361 64.3819 196.46 64.3244 196.577C64.2669 196.695 64.2432 196.825 64.2559 196.955C64.2686 197.085 64.3173 197.209 64.3963 197.313L131.22 283.598C131.286 283.682 131.37 283.75 131.466 283.797C131.562 283.844 131.667 283.868 131.774 283.868C131.88 283.868 131.986 283.844 132.081 283.797C132.177 283.75 132.261 283.682 132.327 283.598L199.151 197.313ZM123.599 283.002L58.1163 198.08C57.9404 197.851 57.6861 197.695 57.4003 197.64C57.1146 197.585 56.8169 197.635 56.5623 197.782L16.6894 220.743C16.5435 220.827 16.4223 220.948 16.338 221.094C16.2537 221.239 16.2094 221.405 16.2094 221.573C16.2094 221.742 16.2537 221.907 16.338 222.053C16.4223 222.199 16.5435 222.32 16.6894 222.404L122.896 283.768C124.457 284.677 124.692 284.422 123.599 283.002ZM247.071 222.212C247.181 222.146 247.272 222.052 247.335 221.94C247.399 221.828 247.432 221.702 247.432 221.573C247.432 221.445 247.399 221.318 247.335 221.206C247.272 221.094 247.181 221.001 247.071 220.934L206.708 197.526C206.552 197.437 206.369 197.408 206.193 197.443C206.017 197.478 205.86 197.576 205.75 197.718L140.161 282.448C140.042 282.584 139.976 282.759 139.977 282.941C139.977 283.122 140.044 283.297 140.164 283.432C140.284 283.568 140.449 283.655 140.629 283.678C140.809 283.701 140.99 283.657 141.14 283.555L247.071 222.212Z"/>
</mask>
<path d="M119.405 295.121C80.7173 272.728 42.1572 250.42 3.72491 228.197C2.89698 227.719 2.20933 227.033 1.73104 226.206C1.25274 225.38 1.00062 224.443 1 223.49L1.02129 78.8867C1.02107 77.8903 1.2825 76.9113 1.7794 76.0478C2.27631 75.1843 2.99126 74.4666 3.85263 73.9665L128.836 1.78189C129.722 1.26966 130.728 1 131.752 1C132.776 1 133.782 1.26966 134.669 1.78189L259.843 74.0517C260.653 74.5243 261.324 75.2015 261.791 76.0162C262.258 76.8308 262.504 77.7544 262.504 78.695V223.086C262.503 224.174 262.218 225.242 261.676 226.184C261.135 227.126 260.356 227.909 259.418 228.453C218.927 251.798 177.494 275.731 135.116 300.254C130.347 303.002 123.407 297.443 119.405 295.121ZM23.4804 78.1838C60.0677 72.8021 94.5475 68.1091 126.92 64.1048C127.509 64.0272 128.049 63.7382 128.441 63.2915C128.833 62.8448 129.049 62.2708 129.049 61.6766V17.0325C129.049 15.6267 128.438 15.2717 127.218 15.9675C92.1349 36.2448 56.7468 56.657 21.0535 77.2041C19.6485 77.9992 19.7478 78.3968 21.3515 78.3968C21.8057 78.3968 22.5153 78.3258 23.4804 78.1838ZM135.542 15.5841C135.435 15.5202 135.314 15.4856 135.19 15.4837C135.067 15.4818 134.944 15.5127 134.836 15.5732C134.728 15.6338 134.638 15.7219 134.575 15.8285C134.512 15.9351 134.478 16.0566 134.477 16.1805L134.605 63.0398C134.604 63.2123 134.666 63.3793 134.78 63.5089C134.894 63.6386 135.051 63.7218 135.222 63.7427L241.45 78.0986C241.61 78.1177 241.771 78.0815 241.907 77.9962C242.043 77.9108 242.146 77.7814 242.198 77.6295C242.25 77.4776 242.249 77.3124 242.194 77.1613C242.14 77.0103 242.035 76.8825 241.897 76.7994L135.542 15.5841ZM57.946 186.131C57.9985 186.261 58.0869 186.374 58.2008 186.456C58.3147 186.538 58.4495 186.587 58.5898 186.596C58.73 186.605 58.8698 186.574 58.9932 186.506C59.1166 186.439 59.2185 186.338 59.2872 186.216L125.898 70.7715C125.967 70.6509 126 70.5136 125.995 70.375C125.99 70.2363 125.946 70.1019 125.868 69.9868C125.791 69.8717 125.683 69.7805 125.557 69.7235C125.43 69.6664 125.29 69.6458 125.153 69.664L17.2216 84.2756C17.1081 84.2899 16.9995 84.3302 16.9041 84.3933C16.8086 84.4564 16.729 84.5407 16.6714 84.6395C16.6137 84.7384 16.5796 84.8492 16.5717 84.9634C16.5637 85.0776 16.5822 85.192 16.6256 85.2979L57.946 186.131ZM138.352 69.6427C138.211 69.6214 138.067 69.6409 137.937 69.6987C137.808 69.7566 137.697 69.8503 137.619 69.969C137.54 70.0877 137.498 70.2263 137.495 70.3685C137.493 70.5107 137.532 70.6505 137.606 70.7715L204.26 186.28C204.329 186.402 204.43 186.503 204.554 186.57C204.677 186.638 204.817 186.669 204.957 186.66C205.098 186.651 205.232 186.602 205.346 186.52C205.46 186.438 205.549 186.325 205.601 186.195L246.922 85.2979C246.965 85.1936 246.984 85.0807 246.977 84.9679C246.97 84.8551 246.938 84.7453 246.883 84.6469C246.827 84.5484 246.75 84.4638 246.657 84.3994C246.565 84.3351 246.458 84.2928 246.347 84.2756L138.352 69.6427ZM63.3745 189.73C63.3034 189.853 63.266 189.993 63.2661 190.135C63.2662 190.278 63.3037 190.417 63.375 190.54C63.4462 190.664 63.5486 190.766 63.6718 190.837C63.7951 190.908 63.9348 190.945 64.077 190.944H199.427C199.57 190.945 199.709 190.908 199.833 190.837C199.956 190.766 200.058 190.664 200.13 190.54C200.201 190.417 200.238 190.278 200.238 190.135C200.238 189.993 200.201 189.853 200.13 189.73L132.455 72.6672C132.384 72.5433 132.282 72.4402 132.158 72.3686C132.035 72.2969 131.895 72.2592 131.752 72.2592C131.61 72.2592 131.469 72.2969 131.346 72.3686C131.223 72.4402 131.12 72.5433 131.05 72.6672L63.3745 189.73ZM12.3041 215.609C12.3067 215.728 12.3401 215.843 12.4009 215.945C12.4618 216.046 12.548 216.13 12.6511 216.188C12.7543 216.246 12.8707 216.277 12.989 216.276C13.1073 216.275 13.2234 216.244 13.3259 216.184L54.0503 192.755C54.1915 192.67 54.2973 192.537 54.3482 192.381C54.399 192.224 54.3915 192.054 54.327 191.903L13.5813 92.1777C13.5253 92.0262 13.4173 91.8995 13.2766 91.8202C13.1358 91.741 12.9715 91.7143 12.813 91.745C12.6544 91.7757 12.5119 91.8618 12.4109 91.9879C12.3099 92.1139 12.2569 92.2718 12.2615 92.4333L12.3041 215.609ZM209.028 191.903C208.967 192.054 208.963 192.222 209.018 192.375C209.073 192.529 209.183 192.656 209.327 192.734L250.115 216.184C250.215 216.24 250.328 216.268 250.443 216.267C250.557 216.265 250.669 216.234 250.768 216.176C250.867 216.118 250.949 216.035 251.006 215.936C251.063 215.837 251.094 215.724 251.094 215.609L251.222 92.5824C251.222 92.4278 251.168 92.278 251.069 92.1591C250.97 92.0403 250.833 91.9599 250.681 91.932C250.529 91.9041 250.372 91.9305 250.237 92.0065C250.103 92.0826 249.999 92.2035 249.944 92.3481L209.028 191.903ZM199.151 197.313C199.23 197.209 199.278 197.085 199.291 196.955C199.304 196.825 199.28 196.695 199.223 196.577C199.165 196.46 199.076 196.361 198.966 196.292C198.855 196.222 198.728 196.185 198.597 196.184H64.9498C64.8193 196.185 64.6917 196.222 64.5813 196.292C64.4708 196.361 64.3819 196.46 64.3244 196.577C64.2669 196.695 64.2432 196.825 64.2559 196.955C64.2686 197.085 64.3173 197.209 64.3963 197.313L131.22 283.598C131.286 283.682 131.37 283.75 131.466 283.797C131.562 283.844 131.667 283.868 131.774 283.868C131.88 283.868 131.986 283.844 132.081 283.797C132.177 283.75 132.261 283.682 132.327 283.598L199.151 197.313ZM123.599 283.002L58.1163 198.08C57.9404 197.851 57.6861 197.695 57.4003 197.64C57.1146 197.585 56.8169 197.635 56.5623 197.782L16.6894 220.743C16.5435 220.827 16.4223 220.948 16.338 221.094C16.2537 221.239 16.2094 221.405 16.2094 221.573C16.2094 221.742 16.2537 221.907 16.338 222.053C16.4223 222.199 16.5435 222.32 16.6894 222.404L122.896 283.768C124.457 284.677 124.692 284.422 123.599 283.002ZM247.071 222.212C247.181 222.146 247.272 222.052 247.335 221.94C247.399 221.828 247.432 221.702 247.432 221.573C247.432 221.445 247.399 221.318 247.335 221.206C247.272 221.094 247.181 221.001 247.071 220.934L206.708 197.526C206.552 197.437 206.369 197.408 206.193 197.443C206.017 197.478 205.86 197.576 205.75 197.718L140.161 282.448C140.042 282.584 139.976 282.759 139.977 282.941C139.977 283.122 140.044 283.297 140.164 283.432C140.284 283.568 140.449 283.655 140.629 283.678C140.809 283.701 140.99 283.657 141.14 283.555L247.071 222.212Z" fill="black"/>
<path d="M119.405 295.121C80.7173 272.728 42.1572 250.42 3.72491 228.197C2.89698 227.719 2.20933 227.033 1.73104 226.206C1.25274 225.38 1.00062 224.443 1 223.49L1.02129 78.8867C1.02107 77.8903 1.2825 76.9113 1.7794 76.0478C2.27631 75.1843 2.99126 74.4666 3.85263 73.9665L128.836 1.78189C129.722 1.26966 130.728 1 131.752 1C132.776 1 133.782 1.26966 134.669 1.78189L259.843 74.0517C260.653 74.5243 261.324 75.2015 261.791 76.0162C262.258 76.8308 262.504 77.7544 262.504 78.695V223.086C262.503 224.174 262.218 225.242 261.676 226.184C261.135 227.126 260.356 227.909 259.418 228.453C218.927 251.798 177.494 275.731 135.116 300.254C130.347 303.002 123.407 297.443 119.405 295.121ZM23.4804 78.1838C60.0677 72.8021 94.5475 68.1091 126.92 64.1048C127.509 64.0272 128.049 63.7382 128.441 63.2915C128.833 62.8448 129.049 62.2708 129.049 61.6766V17.0325C129.049 15.6267 128.438 15.2717 127.218 15.9675C92.1349 36.2448 56.7468 56.657 21.0535 77.2041C19.6485 77.9992 19.7478 78.3968 21.3515 78.3968C21.8057 78.3968 22.5153 78.3258 23.4804 78.1838ZM135.542 15.5841C135.435 15.5202 135.314 15.4856 135.19 15.4837C135.067 15.4818 134.944 15.5127 134.836 15.5732C134.728 15.6338 134.638 15.7219 134.575 15.8285C134.512 15.9351 134.478 16.0566 134.477 16.1805L134.605 63.0398C134.604 63.2123 134.666 63.3793 134.78 63.5089C134.894 63.6386 135.051 63.7218 135.222 63.7427L241.45 78.0986C241.61 78.1177 241.771 78.0815 241.907 77.9962C242.043 77.9108 242.146 77.7814 242.198 77.6295C242.25 77.4776 242.249 77.3124 242.194 77.1613C242.14 77.0103 242.035 76.8825 241.897 76.7994L135.542 15.5841ZM57.946 186.131C57.9985 186.261 58.0869 186.374 58.2008 186.456C58.3147 186.538 58.4495 186.587 58.5898 186.596C58.73 186.605 58.8698 186.574 58.9932 186.506C59.1166 186.439 59.2185 186.338 59.2872 186.216L125.898 70.7715C125.967 70.6509 126 70.5136 125.995 70.375C125.99 70.2363 125.946 70.1019 125.868 69.9868C125.791 69.8717 125.683 69.7805 125.557 69.7235C125.43 69.6664 125.29 69.6458 125.153 69.664L17.2216 84.2756C17.1081 84.2899 16.9995 84.3302 16.9041 84.3933C16.8086 84.4564 16.729 84.5407 16.6714 84.6395C16.6137 84.7384 16.5796 84.8492 16.5717 84.9634C16.5637 85.0776 16.5822 85.192 16.6256 85.2979L57.946 186.131ZM138.352 69.6427C138.211 69.6214 138.067 69.6409 137.937 69.6987C137.808 69.7566 137.697 69.8503 137.619 69.969C137.54 70.0877 137.498 70.2263 137.495 70.3685C137.493 70.5107 137.532 70.6505 137.606 70.7715L204.26 186.28C204.329 186.402 204.43 186.503 204.554 186.57C204.677 186.638 204.817 186.669 204.957 186.66C205.098 186.651 205.232 186.602 205.346 186.52C205.46 186.438 205.549 186.325 205.601 186.195L246.922 85.2979C246.965 85.1936 246.984 85.0807 246.977 84.9679C246.97 84.8551 246.938 84.7453 246.883 84.6469C246.827 84.5484 246.75 84.4638 246.657 84.3994C246.565 84.3351 246.458 84.2928 246.347 84.2756L138.352 69.6427ZM63.3745 189.73C63.3034 189.853 63.266 189.993 63.2661 190.135C63.2662 190.278 63.3037 190.417 63.375 190.54C63.4462 190.664 63.5486 190.766 63.6718 190.837C63.7951 190.908 63.9348 190.945 64.077 190.944H199.427C199.57 190.945 199.709 190.908 199.833 190.837C199.956 190.766 200.058 190.664 200.13 190.54C200.201 190.417 200.238 190.278 200.238 190.135C200.238 189.993 200.201 189.853 200.13 189.73L132.455 72.6672C132.384 72.5433 132.282 72.4402 132.158 72.3686C132.035 72.2969 131.895 72.2592 131.752 72.2592C131.61 72.2592 131.469 72.2969 131.346 72.3686C131.223 72.4402 131.12 72.5433 131.05 72.6672L63.3745 189.73ZM12.3041 215.609C12.3067 215.728 12.3401 215.843 12.4009 215.945C12.4618 216.046 12.548 216.13 12.6511 216.188C12.7543 216.246 12.8707 216.277 12.989 216.276C13.1073 216.275 13.2234 216.244 13.3259 216.184L54.0503 192.755C54.1915 192.67 54.2973 192.537 54.3482 192.381C54.399 192.224 54.3915 192.054 54.327 191.903L13.5813 92.1777C13.5253 92.0262 13.4173 91.8995 13.2766 91.8202C13.1358 91.741 12.9715 91.7143 12.813 91.745C12.6544 91.7757 12.5119 91.8618 12.4109 91.9879C12.3099 92.1139 12.2569 92.2718 12.2615 92.4333L12.3041 215.609ZM209.028 191.903C208.967 192.054 208.963 192.222 209.018 192.375C209.073 192.529 209.183 192.656 209.327 192.734L250.115 216.184C250.215 216.24 250.328 216.268 250.443 216.267C250.557 216.265 250.669 216.234 250.768 216.176C250.867 216.118 250.949 216.035 251.006 215.936C251.063 215.837 251.094 215.724 251.094 215.609L251.222 92.5824C251.222 92.4278 251.168 92.278 251.069 92.1591C250.97 92.0403 250.833 91.9599 250.681 91.932C250.529 91.9041 250.372 91.9305 250.237 92.0065C250.103 92.0826 249.999 92.2035 249.944 92.3481L209.028 191.903ZM199.151 197.313C199.23 197.209 199.278 197.085 199.291 196.955C199.304 196.825 199.28 196.695 199.223 196.577C199.165 196.46 199.076 196.361 198.966 196.292C198.855 196.222 198.728 196.185 198.597 196.184H64.9498C64.8193 196.185 64.6917 196.222 64.5813 196.292C64.4708 196.361 64.3819 196.46 64.3244 196.577C64.2669 196.695 64.2432 196.825 64.2559 196.955C64.2686 197.085 64.3173 197.209 64.3963 197.313L131.22 283.598C131.286 283.682 131.37 283.75 131.466 283.797C131.562 283.844 131.667 283.868 131.774 283.868C131.88 283.868 131.986 283.844 132.081 283.797C132.177 283.75 132.261 283.682 132.327 283.598L199.151 197.313ZM123.599 283.002L58.1163 198.08C57.9404 197.851 57.6861 197.695 57.4003 197.64C57.1146 197.585 56.8169 197.635 56.5623 197.782L16.6894 220.743C16.5435 220.827 16.4223 220.948 16.338 221.094C16.2537 221.239 16.2094 221.405 16.2094 221.573C16.2094 221.742 16.2537 221.907 16.338 222.053C16.4223 222.199 16.5435 222.32 16.6894 222.404L122.896 283.768C124.457 284.677 124.692 284.422 123.599 283.002ZM247.071 222.212C247.181 222.146 247.272 222.052 247.335 221.94C247.399 221.828 247.432 221.702 247.432 221.573C247.432 221.445 247.399 221.318 247.335 221.206C247.272 221.094 247.181 221.001 247.071 220.934L206.708 197.526C206.552 197.437 206.369 197.408 206.193 197.443C206.017 197.478 205.86 197.576 205.75 197.718L140.161 282.448C140.042 282.584 139.976 282.759 139.977 282.941C139.977 283.122 140.044 283.297 140.164 283.432C140.284 283.568 140.449 283.655 140.629 283.678C140.809 283.701 140.99 283.657 141.14 283.555L247.071 222.212Z" stroke="black" stroke-width="2" mask="url(#path-1-outside-1_837_2249)"/>
</svg>
