<svg width="40" height="40" viewBox="0 0 40 40" fill="none" xmlns="http://www.w3.org/2000/svg">
<path d="M18.7464 0.0173491C18.6179 0.0321164 18.1823 0.0771455 17.7785 0.117404C14.4323 0.450691 10.8487 1.85686 8.1063 3.91279C2.76492 7.91701 -0.199839 14.0382 0.0104777 20.6281C0.297947 29.6359 6.49328 37.2656 15.283 39.4366C20.4166 40.7046 26.0833 39.8051 30.5538 37.0129C35.0496 34.2047 38.213 29.8417 39.4693 24.7164C39.8996 22.9613 40 22.0676 40 19.9942C40 17.9209 39.8996 17.0272 39.4693 15.2721C37.4853 7.17819 30.8157 1.224 22.5182 0.139305C21.8071 0.0463385 19.2208 -0.0372673 18.7464 0.0173491ZM10.3351 13.0889L12.0364 14.7902L13.756 13.0726L15.4756 11.3549L16.827 12.7055L18.1783 14.056L16.4596 15.7746L14.741 17.4933L16.4433 19.1936C17.3796 20.1288 18.1456 20.9245 18.1456 20.9618C18.1456 20.9991 17.5448 21.6296 16.8104 22.3628L15.4752 23.696L13.7396 21.9623L12.004 20.2287L10.2847 21.9461L8.5654 23.6635L7.21407 22.3129L5.8627 20.9623L7.58106 19.244L9.29942 17.5257L7.56478 15.7911L5.83019 14.0565L7.16411 12.722C7.8978 11.9881 8.52862 11.3876 8.56594 11.3876C8.60327 11.3876 9.39939 12.1532 10.3351 13.0889ZM26.3567 13.0889L28.058 14.7902L29.7776 13.0726L31.4971 11.3549L32.8485 12.7055L34.1998 14.056L32.4812 15.7746L30.7625 17.4932L32.4982 19.2269L34.2338 20.9606L32.8826 22.3122L31.5313 23.6639L29.8281 21.9625C28.8912 21.0267 28.0947 20.2611 28.058 20.2611C28.0212 20.2611 27.2256 21.0267 26.2899 21.9624L24.5887 23.6636L23.2362 22.3132L21.8838 20.9627L23.6196 19.2271L25.3553 17.4914L23.6197 15.7577L21.8841 14.0241L23.2019 12.7059C23.9266 11.9808 24.5501 11.3876 24.5875 11.3876C24.6248 11.3876 25.4209 12.1532 26.3567 13.0889Z" fill="black"/>
</svg>
