<svg width="40" height="40" viewBox="0 0 40 40" fill="none" xmlns="http://www.w3.org/2000/svg">
<path d="M18.6374 0.01843C12.7655 0.456342 7.53016 3.29475 3.99141 7.959C1.96825 10.6256 0.709591 13.6694 0.152724 17.242C-0.0509081 18.5486 -0.0509081 21.4038 0.152724 22.7104C1.00784 28.1964 3.66006 32.6979 7.95899 35.9596C10.614 37.9741 13.6744 39.239 17.2366 39.7943C18.5432 39.9979 21.3984 39.9979 22.705 39.7943C27.5653 39.0367 31.6967 36.8455 34.797 33.3811C37.5453 30.3099 39.1335 26.9149 39.7889 22.7104C39.9925 21.4038 39.9925 18.5486 39.7889 17.242C39.2336 13.6799 37.9687 10.6194 35.9542 7.9644C32.647 3.60549 27.9203 0.863197 22.4708 0.141699C21.6903 0.0383619 19.3704 -0.0362351 18.6374 0.01843ZM27.7041 10.757C27.7041 10.9543 28.3138 12.4041 28.7355 13.2095C28.9659 13.6495 29.4894 14.5753 29.8989 15.2666C30.7115 16.6385 31.2816 17.7376 31.4775 18.3096C31.5741 18.5915 31.6032 18.8687 31.6036 19.5096C31.6043 20.5175 31.4536 21.0634 30.9707 21.8031C29.6167 23.8772 26.7296 24.2428 24.9381 22.5669C24.3854 22.0498 24.0597 21.5516 23.8131 20.8458C23.6413 20.3545 23.6138 20.18 23.6129 19.5762C23.612 18.9842 23.6402 18.794 23.7954 18.3429C24.0105 17.7179 24.5666 16.6432 25.4684 15.1096C26.2987 13.6974 27.0853 12.1057 27.3732 11.2554C27.5767 10.654 27.7041 10.4622 27.7041 10.757ZM11.2375 13.0762L12.9365 14.7762L14.6374 13.0762C15.573 12.1412 16.3685 11.3762 16.4052 11.3762C16.442 11.3762 17.0642 11.9689 17.788 12.6934L19.104 14.0106L17.3707 15.7429L15.6374 17.4753L17.3708 19.2096L19.1043 20.9439L17.7537 22.2933L16.403 23.6428L14.7041 21.9428C13.7697 21.0079 12.9751 20.2429 12.9384 20.2429C12.9017 20.2429 12.1063 21.0079 11.1707 21.9429L9.46973 23.643L8.12031 22.2924L6.77093 20.9418L8.50419 19.2095L10.2375 17.4771L8.52135 15.7601L6.80526 14.043L8.13738 12.7096C8.87009 11.9763 9.48503 11.3762 9.50401 11.3762C9.52294 11.3762 10.303 12.1412 11.2375 13.0762ZM31.7041 30.4762V31.5762H8.30414V29.3762H31.7041V30.4762Z" fill="black"/>
</svg>
