<svg width="42" height="40" viewBox="0 0 42 40" fill="none" xmlns="http://www.w3.org/2000/svg">
<path d="M18.9679 0.018715C16.2473 0.261712 14.2414 0.770361 12.0824 1.76469C8.87666 3.2411 6.01542 5.6594 4.00833 8.58889L3.60803 9.17313L2.4855 9.54648C1.86808 9.75179 1.12672 10.0381 0.837958 10.1828C0.0456001 10.5798 0.0380777 10.6006 0.0101374 12.4688C-0.0123402 13.9682 -0.00987755 13.9992 0.15069 14.2433C0.240555 14.3799 0.439854 14.5569 0.593525 14.6366C1.17288 14.9369 1.13626 14.8227 0.946137 15.736C0.58766 17.4586 0.527346 18.0744 0.529406 19.9927C0.531018 21.5089 0.556854 21.9697 0.68854 22.8318C1.37303 27.3136 3.18696 30.9649 6.29639 34.1201C9.26966 37.1371 12.6669 38.933 16.9188 39.7353C17.6202 39.8677 18.0629 39.8952 19.8915 39.9206C21.8241 39.9473 22.1406 39.935 23.0415 39.7981C25.2639 39.4603 27.1814 38.8389 29.1857 37.807C33.6692 35.4985 37.2028 31.3875 38.8389 26.5764C39.5947 24.3537 40.0188 21.6096 39.955 19.3538C39.9354 18.6617 39.9624 18.482 40.333 16.8341C40.5524 15.8581 40.8133 14.5964 40.9126 14.0303C41.0119 13.4643 41.1075 12.9324 41.1251 12.8484C41.1431 12.7627 41.2917 12.6158 41.4635 12.5137C41.6558 12.3994 41.8157 12.2335 41.8932 12.0678C42.0121 11.8139 42.0109 11.7537 41.8634 10.4506C41.7792 9.70625 41.6809 8.98335 41.6449 8.84419C41.5683 8.54775 41.3595 8.32945 41.0114 8.18198C40.2805 7.87229 37.3647 7.28378 36.0206 7.17467L35.3982 7.12414L34.3056 6.0085C33.7046 5.39492 32.9137 4.65318 32.548 4.36019C29.6869 2.06829 26.3579 0.635105 22.7749 0.15279C21.97 0.044413 19.6106 -0.0386744 18.9679 0.018715ZM37.413 7.78244C39.3729 8.0855 40.9369 8.51447 41.1195 8.7991C41.2181 8.95265 41.508 11.0496 41.508 11.609C41.508 11.8404 41.4696 11.9193 41.2913 12.0553C40.6858 12.5168 40.713 12.4526 40.5011 13.9239C39.8354 18.5482 39.181 20.4253 37.8469 21.5369C35.8909 23.1668 31.7635 23.8063 28.8071 22.9375C27.4947 22.5519 26.3693 21.8865 25.5409 21.0063C24.6443 20.0538 24.221 19.2831 23.0978 16.5581C22.1601 14.2828 22.1277 14.2433 21.2035 14.2433C20.4188 14.2433 20.2171 14.3503 19.9513 14.9077C19.837 15.1473 19.5346 16.0462 19.2794 16.905C18.4086 19.8352 17.8818 20.9408 16.8645 21.9723C15.7141 23.1387 14.1392 23.9095 12.1857 24.2619C11.2228 24.4357 9.25529 24.4711 8.36294 24.3308C6.25108 23.9987 4.72757 23.189 3.9057 21.9618C3.23912 20.9665 2.47972 18.889 1.74584 16.0533C1.54381 15.2725 1.33332 14.5807 1.27815 14.5159C1.22299 14.4512 1.07773 14.3581 0.955406 14.3091C0.475451 14.1167 0.487943 14.1654 0.487943 12.4899C0.487943 10.6743 0.407122 10.8245 1.65226 10.3267C3.75396 9.48646 6.42924 8.93368 9.48297 8.70866C12.0735 8.51778 14.0637 8.68396 16.7466 9.3152C18.2817 9.67638 19.0025 9.77072 20.2279 9.77072C21.9663 9.77072 22.7835 9.61127 25.303 8.78058C27.3869 8.09345 28.5056 7.84832 30.483 7.64546C30.8294 7.60991 32.31 7.59211 33.7729 7.60587C36.0515 7.6273 36.5735 7.65263 37.413 7.78244ZM31.0182 9.7719C28.7065 9.96845 26.7139 10.4918 25.7135 11.1651C25.0037 11.6429 24.778 12.1386 24.778 13.2195C24.778 14.035 24.9063 14.7108 25.2756 15.8403C25.6352 16.94 26.4905 18.6974 26.9343 19.2488C27.9623 20.5258 29.6492 21.1982 31.8269 21.199C33.3736 21.1996 34.9859 20.8648 35.8181 20.3703C36.3936 20.0283 36.9372 19.452 37.2026 18.9027C37.5082 18.27 37.8222 17.0647 38.019 15.7694C38.225 14.4127 38.2401 12.4932 38.0498 11.8468C37.7445 10.8094 36.8282 10.2368 34.9529 9.91175C34.0074 9.74784 32.0989 9.68001 31.0182 9.7719ZM10.1479 10.841C7.44888 10.9806 5.38291 11.6116 4.48972 12.5693C4.09645 12.9909 3.99852 13.2521 3.94197 14.0303C3.84199 15.4054 4.54484 18.5501 5.30576 20.1324C5.65891 20.8668 6.187 21.3914 6.94157 21.7573C7.84103 22.1935 8.42312 22.3003 9.86796 22.2941C11.278 22.2881 12.0625 22.1708 13.1023 21.8107C14.0142 21.4949 14.4842 21.2014 15.1616 20.525C15.6537 20.0336 15.7776 19.8569 16.082 19.2119C16.4605 18.4099 16.9382 16.9912 17.1574 16.0178C17.2321 15.686 17.3123 15.0252 17.3356 14.5495C17.4386 12.4455 16.9098 11.6939 14.9779 11.199C13.7569 10.8861 11.9147 10.7496 10.1479 10.841Z" fill="black"/>
</svg>
