<svg width="19" height="24" viewBox="0 0 19 24" fill="none" xmlns="http://www.w3.org/2000/svg">
<path d="M6.458 9.45125C6.503 9.52425 6.581 9.57125 6.67 9.57125C6.73 9.57125 6.786 9.55025 6.828 9.51425L6.843 9.50225C7.233 9.17725 7.584 8.84225 7.914 8.48525C11.123 5.00225 9.249 0.726249 9.234 0.686249C9.144 0.476249 9.204 0.227249 9.384 0.0922491C9.579 -0.0427509 9.819 -0.0277509 9.999 0.125249C20.874 10.2392 17.994 17.9432 17.784 18.4622C16.914 21.6032 13.449 23.8763 9.34 23.9923C9.202 24.0003 9.098 24.0002 8.977 24.0002C4.125 24.0002 0 21.0113 0 17.1933V17.1332C0 11.8362 4.795 6.61125 5.009 6.38925C5.145 6.24025 5.354 6.19425 5.534 6.28425C5.714 6.36025 5.831 6.53925 5.825 6.73525C5.782 7.77125 5.992 8.67025 6.456 9.43525V9.45025L6.458 9.45125Z" fill="black"/>
</svg>
