<svg width="40" height="40" viewBox="0 0 40 40" fill="none" xmlns="http://www.w3.org/2000/svg">
<path d="M18.7212 0.0173357C18.5929 0.0320917 18.1579 0.077086 17.7546 0.117313C14.4129 0.450344 10.8342 1.85543 8.09541 3.90978C2.7612 7.91091 -0.19957 14.0274 0.0104636 20.6122C0.297547 29.6131 6.48456 37.2369 15.2625 39.4062C20.3892 40.6732 26.0483 39.7744 30.5128 36.9843C35.0025 34.1784 38.1617 29.8187 39.4163 24.6973C39.846 22.9436 39.9463 22.0506 39.9463 19.9788C39.9463 17.9071 39.846 17.0141 39.4163 15.2603C37.435 7.17266 30.7743 1.22306 22.4879 0.139197C21.7778 0.0463028 19.195 -0.0372386 18.7212 0.0173357ZM9.08788 11.8455L9.55099 12.3122H14.4847L14.9678 11.8324L15.4508 11.3526L15.9455 11.8324L16.4403 12.3122H17.2546V13.1421L17.7028 13.5938L18.151 14.0455L17.7028 14.4972L17.2546 14.9489V20.016L17.6879 20.4455C17.9262 20.6817 18.1212 20.9067 18.1212 20.9455C18.1212 20.9843 17.9262 21.2093 17.6879 21.4455L17.2546 21.875V22.7122H16.4244L15.9395 23.1938L15.4546 23.6755L14.9696 23.1938L14.4847 22.7122H9.49105L9.02113 23.1789L8.55121 23.6457L8.08801 23.1789L7.62481 22.7122H6.7879V21.882L6.32111 21.4121L5.85432 20.9422L6.32111 20.4789L6.7879 20.0157V15.0153L6.30622 14.5304L5.82458 14.0455L6.30622 13.5606L6.7879 13.0757V12.3122H7.55816L8.02123 11.8455C8.27594 11.5888 8.51594 11.3788 8.55457 11.3788C8.59321 11.3788 8.83321 11.5888 9.08788 11.8455ZM25.0879 11.8455L25.551 12.3122H30.4847L30.9678 11.8324L31.4508 11.3526L31.9455 11.8324C32.4399 12.3118 32.4407 12.3122 32.8141 12.3122H33.1879V12.6859C33.1879 13.0594 33.1883 13.0601 33.6677 13.5545L34.1474 14.0493L33.6677 14.5323L33.1879 15.0153V19.9426L33.688 20.4456L34.1881 20.9486L33.688 21.4454L33.1879 21.9422V22.7122H32.4244L31.9544 23.1789L31.4846 23.6457L31.0214 23.1789L30.5582 22.7122H25.4911L25.0211 23.1789L24.5512 23.6457L24.088 23.1789L23.6248 22.7122H22.7879V21.882L22.3211 21.4121L21.8543 20.9422L22.3211 20.4789L22.7879 20.0157V14.9486L22.3211 14.4787L21.8543 14.0088L22.3211 13.5456L22.7879 13.0824V12.3122H23.5582L24.0212 11.8455C24.2759 11.5888 24.5159 11.3788 24.5546 11.3788C24.5932 11.3788 24.8332 11.5888 25.0879 11.8455Z" fill="black"/>
</svg>
